<?xml version="1.0" encoding="UTF-8" standalone="no"?>
<!-- Created with Inkscape (http://www.inkscape.org/) -->

<svg
   xmlns:dc="http://purl.org/dc/elements/1.1/"
   xmlns:cc="http://creativecommons.org/ns#"
   xmlns:rdf="http://www.w3.org/1999/02/22-rdf-syntax-ns#"
   xmlns:svg="http://www.w3.org/2000/svg"
   xmlns="http://www.w3.org/2000/svg"
   xmlns:sodipodi="http://sodipodi.sourceforge.net/DTD/sodipodi-0.dtd"
   xmlns:inkscape="http://www.inkscape.org/namespaces/inkscape"
   width="90mm"
   height="90mm"
   viewBox="0 0 318.89757 318.89764"
   id="svg4409"
   version="1.1"
   inkscape:version="0.91 r13725"
   sodipodi:docname="degree not required.svg"
   inkscape:export-filename="C:\Users\Jaimie\Desktop\Inkscape\degree not required.png"
   inkscape:export-xdpi="90"
   inkscape:export-ydpi="90">
  <defs
     id="defs4411" />
  <sodipodi:namedview
     id="base"
     pagecolor="#0f782f"
     bordercolor="#666666"
     borderopacity="1.0"
     inkscape:pageopacity="0"
     inkscape:pageshadow="2"
     inkscape:zoom="0.70000001"
     inkscape:cx="254.72232"
     inkscape:cy="299.42407"
     inkscape:document-units="px"
     inkscape:current-layer="g4137"
     showgrid="false"
     inkscape:window-width="1366"
     inkscape:window-height="706"
     inkscape:window-x="-8"
     inkscape:window-y="-8"
     inkscape:window-maximized="1"
     showguides="false" />
  <metadata
     id="metadata4414">
    <rdf:RDF>
      <cc:Work
         rdf:about="">
        <dc:format>image/svg+xml</dc:format>
        <dc:type
           rdf:resource="http://purl.org/dc/dcmitype/StillImage" />
        <dc:title></dc:title>
      </cc:Work>
    </rdf:RDF>
  </metadata>
  <g
     inkscape:label="Layer 1"
     inkscape:groupmode="layer"
     id="layer1"
     transform="translate(0,-733.4646)">
    <g
       transform="translate(510.52283,191.62007)"
       id="g4386"
       style="stroke:#5f8dd3">
      <g
         id="g4137"
         style="fill:none;stroke:#ffffff">
        <g
           id="g4203"
           inkscape:export-filename="C:\Users\Lady Droxxie\Documents\Code\DNR\DNRwhite.png"
           inkscape:export-xdpi="90"
           inkscape:export-ydpi="90"
           transform="translate(-106,106)">
          <path
             sodipodi:nodetypes="ccssccccccccccccccccccscccscsccccccccccscscccccccccccccscccccccccccsccccccccccccccccccccccccccccccccccccccc"
             inkscape:connector-curvature="0"
             id="path4247"
             transform="translate(-510.52283,329.24608)"
             d="m 290.75195,118.09375 -37.42968,37.42969 c 15.21667,-0.78119 31.17699,1.95633 40.8789,7.46875 16.02422,9.10459 10.50639,22.32804 -10.44336,29.07031 -23.26175,7.48636 -56.8983,4.85854 -73.96093,-5.05273 11.69144,12.33397 20.16543,45.58549 21.85546,70.37109 75.83428,-52.96309 0,0 75.83428,-52.96309 16.34103,-47.71975 34.45892,-79.60451 -16.73438,-86.32422 z m -37.42994,37.42995 c -7.18208,0.36871 -14.19961,1.51461 -20.3125,3.53515 -16.77426,5.5445 -21.11703,16.28048 -7.84375,23.57813 11.49323,6.31899 33.5657,7.93446 48.42578,2.81445 12.60489,-4.34299 15.77588,-12.59957 5.24218,-18.08594 -8.69286,-4.5276 -25.01807,-5.64114 -35.6582,-1.69531 z m 46.09179,75.49023 c -0.11787,0.0749 -0.23631,0.14869 -0.35351,0.22461 l -1.20117,0.50781 c -0.0267,0.0202 -0.0529,0.04 -0.0801,0.0605 0.24526,-0.0962 0.40581,-0.15239 0.22656,-0.0508 -0.12052,0.0683 -0.35663,0.18891 -0.54297,0.29102 -0.85123,0.64118 -1.85186,1.38692 -2.37109,1.79687 0.30183,1.12239 -2.08288,0.7801 -3.09571,1.23828 -0.10624,0.0481 0.28153,-0.0322 0.34375,0.0664 0.0518,0.0821 -0.0672,0.19242 -0.14062,0.25586 -0.43719,0.37763 -0.88196,0.75358 -1.375,1.05468 -0.95416,0.5827 -1.97053,1.05815 -2.95508,1.5879 -1.2249,0.74963 -2.71582,0.91562 -3.97656,1.58398 -0.0755,0.04 0.0262,0.20384 -0.043,0.25391 -0.64727,0.46812 -1.36714,0.82497 -2.04102,1.2539 -1.01448,0.64573 -0.80171,0.39753 -1.12304,0.79102 -2.49296,0.27332 -5.19378,-0.21385 -7.47852,0.82031 -1.45031,0.65647 2.95096,0.48843 4.71094,0.35352 0.72507,-0.80344 1.37144,-1.36625 1.12695,-0.72266 -0.0574,0.15121 -0.15304,0.31104 -0.24414,0.46875 0.3916,-0.21903 0.76144,-0.52194 1.1836,-0.66406 0.16719,-0.0563 -0.21436,0.28557 -0.35157,0.39648 -0.44568,0.36023 -0.91142,0.69535 -1.37304,1.03516 -0.0131,0.0156 -0.0219,0.0313 -0.0352,0.0469 0.13618,-0.10024 0.1667,-0.1211 0.25,-0.18164 -0.10207,0.0789 -0.28817,0.25713 -0.42773,0.38086 -0.89007,0.97581 -2.16438,1.91111 -3.3418,2.49414 -0.23719,0.258 -0.40436,0.44671 -0.70313,0.76563 -0.85561,0.91333 -6.1197,3.09307 -1.92578,1.23633 -1.17059,0.743 -2.00577,1.97996 -3.1289,2.77539 -1.47818,1.04688 -2.14095,1.51395 -2.58594,1.82421 -0.54226,0.62982 -1.31403,1.2009 -1.95117,1.64649 -0.34978,0.30924 -0.75824,0.6535 -0.95899,0.87695 -1.05534,0.87183 -1.22721,1.03967 -1.98242,1.40039 -0.92466,0.91862 -0.99259,1.01477 -2.40039,1.96094 -2.29473,2.5956 -5.17364,3.53216 -8.39453,4.11523 0.0377,0.007 0.0753,0.013 0.10742,0.0391 0.14149,0.11486 -0.33016,0.15862 -0.50586,0.20703 -0.12745,0.0351 -0.25548,0.0707 -0.38281,0.10742 -0.74688,0.2955 -1.84054,0.64871 -2.91406,0.94531 -1.03541,1.03735 -6.82817,4.77952 -2.80664,2.04492 l -3.70118,2.16797 c -0.13054,0.0628 -0.42851,0.0477 -0.39062,0.1875 0.0505,0.18615 0.71202,-0.2361 0.56836,-0.10742 -1.34336,1.20326 -2.41943,1.81244 -1.28516,1.14063 -1.04372,0.64026 -1.67983,1.04344 -2.33008,1.45312 -0.18368,0.19202 -0.34774,0.36888 -0.51953,0.55274 0.0788,-0.0217 0.0631,0.003 -0.0879,0.0996 -0.11678,0.12788 -0.25177,0.26775 -0.32422,0.36523 -0.42832,0.2315 -0.86646,0.44767 -1.30273,0.66601 -0.30313,0.27839 -0.64271,0.57918 -0.95703,0.86329 0.21456,0.0339 -0.0919,0.24605 -0.47461,0.45898 -0.61287,0.61406 -1.25941,1.16411 -1.94141,1.66016 -2.52212,27.29347 -13.75976,73.01953 -13.75976,73.01953 29.52379,18.3801 61.55822,16.42187 91.08203,0.5918 0,0 -17.44629,-52.00427 -15.38282,-82.17774 0.86753,-12.68549 3.13102,-24.78392 6.04883,-36.23047 z m -62.98828,40.78321 c 0.0318,-0.0348 0.0541,-0.0634 0.0879,-0.0996 -0.0883,0.0243 -0.42709,0.18284 -0.98047,0.45507 -0.0847,0.0861 -0.17258,0.16902 -0.26562,0.24219 -0.0227,0.0179 -0.0714,0.0377 -0.10352,0.0566 -0.0282,0.0303 -0.0588,0.0624 -0.0918,0.0957 0.41065,-0.1973 1.01772,-0.53584 1.35351,-0.75 z m -1.26172,0.65429 c 0.0651,-0.0701 0.17952,-0.17037 0.21289,-0.2207 -0.0311,0.0154 -0.0669,0.0325 -0.0996,0.0488 -0.20591,0.14243 -0.44277,0.30314 -0.49218,0.35156 0.14693,-0.0572 0.27333,-0.11739 0.3789,-0.17969 z m 0.21289,-0.2207 c 0.0491,-0.0243 0.11098,-0.0559 0.15625,-0.0781 0.0359,-0.0365 0.0707,-0.075 0.10547,-0.11328 -0.0893,0.0593 -0.18677,0.12146 -0.25781,0.16992 -0.005,0.01 0.003,0.011 -0.004,0.0215 z m 31.18555,-19.59375 c -0.0215,-0.0247 -0.21386,0.0636 -0.72266,0.36523 -0.20985,0.1244 0.44104,-0.20543 0.66211,-0.30859 0.008,0.002 0.0125,0.006 0.0254,0.006 0.027,-0.0308 0.0425,-0.0541 0.0352,-0.0625 z m -4.30273,3.47266 c -0.15674,0.15024 -0.11119,0.10921 -0.24024,0.23437 0.19723,-0.1858 0.35891,-0.34814 0.24024,-0.23437 z m -29.43946,17.75585 c -0.33809,0.19172 -0.6712,0.39258 -0.99414,0.60938 -0.35741,0.23993 0.18823,-0.1109 0.82813,-0.41992 0.0557,-0.0635 0.10931,-0.12624 0.16601,-0.18946 z"
             style="fill:#ffffff;fill-opacity:1;fill-rule:evenodd;stroke:#ffffff;stroke-width:5.00000048;stroke-linecap:round;stroke-linejoin:miter;stroke-miterlimit:4;stroke-dasharray:none;stroke-opacity:1" />
          <path
             sodipodi:nodetypes="cc"
             inkscape:connector-curvature="0"
             id="path4297"
             d="M -139.32925,518.28737 -351.15672,669.32005"
             style="fill:none;fill-rule:evenodd;stroke:#ffffff;stroke-width:35;stroke-linecap:round;stroke-linejoin:round;stroke-miterlimit:4;stroke-dasharray:none;stroke-opacity:1" />
          <path
             transform="matrix(0.81003367,-0.58638337,0.58638337,0.81003367,0,0)"
             d="m -412.35242,338.17531 a 134.81915,134.29724 0 0 1 -109.41008,132.17657 134.81915,134.29724 0 0 1 -150.75654,-82.44269 134.81915,134.29724 0 0 1 53.21587,-162.90691 134.81915,134.29724 0 0 1 170.59266,21.71946"
             sodipodi:open="true"
             sodipodi:end="5.5311753"
             sodipodi:start="6.281056"
             sodipodi:ry="134.29724"
             sodipodi:rx="134.81915"
             sodipodi:cy="338.46127"
             sodipodi:cx="-547.17126"
             sodipodi:type="arc"
             id="path4379"
             style="opacity:1;fill:none;fill-opacity:1;stroke:#ffffff;stroke-width:35;stroke-linecap:round;stroke-linejoin:round;stroke-miterlimit:4;stroke-dasharray:none;stroke-opacity:1" />
        </g>
      </g>
    </g>
  </g>
</svg>
